<?xml version="1.0" standalone="no"?>
<!DOCTYPE svg PUBLIC "-//W3C//DTD SVG 20010904//EN"
 "http://www.w3.org/TR/2001/REC-SVG-20010904/DTD/svg10.dtd">
<svg version="1.0" xmlns="http://www.w3.org/2000/svg"
 width="128.000000pt" height="128.000000pt" viewBox="0 0 128.000000 128.000000"
 preserveAspectRatio="xMidYMid meet">
<metadata>
Created by potrace 1.14, written by Peter Selinger 2001-2017
</metadata>
<g transform="translate(0.000000,128.000000) scale(0.100000,-0.100000)"
fill="#000000" stroke="none">
<path d="M609 1117 c-67 -28 -101 -52 -154 -107 -22 -23 -65 -55 -96 -71 -73
-39 -113 -81 -152 -160 -25 -49 -44 -71 -90 -103 -32 -23 -71 -61 -88 -85 -28
-43 -29 -47 -29 -168 0 -140 11 -176 73 -230 73 -64 73 -64 587 -61 521 3 500
1 582 78 l38 37 0 169 0 170 -51 49 c-63 63 -66 67 -79 151 -23 140 -103 255
-224 316 -54 28 -72 32 -161 35 -87 3 -107 1 -156 -20z m284 -60 c131 -60 221
-219 203 -356 -6 -46 -6 -47 27 -59 83 -30 131 -112 132 -222 0 -95 -30 -160
-94 -205 l-43 -30 -457 -3 -458 -3 -53 28 c-135 71 -159 275 -46 388 32 31 56
46 87 52 41 8 44 11 51 51 16 95 82 173 163 193 25 6 45 15 45 19 0 15 91 109
126 131 91 56 216 63 317 16z"/>
<path d="M400 756 c-87 -22 -90 -31 -106 -291 -6 -116 7 -156 64 -188 76 -44
138 18 128 126 l-6 57 33 0 c52 0 72 21 70 73 -1 40 1 46 23 51 15 4 31 20 41
41 16 33 16 37 0 71 -29 59 -140 86 -247 60z m-4 -57 c4 -8 25 -9 58 -5 29 3
67 1 86 -4 21 -6 38 -6 45 0 15 13 25 3 25 -25 0 -38 -24 -48 -93 -42 -34 3
-72 9 -84 13 -27 7 -30 -7 -8 -30 8 -8 15 -23 15 -34 0 -18 6 -20 48 -19 44 2
47 0 47 -23 0 -23 -3 -25 -47 -24 l-47 0 -3 -95 -3 -96 -28 -3 c-18 -2 -37 4
-49 15 -20 17 -20 25 -15 174 6 151 16 209 36 209 5 0 13 -5 17 -11z"/>
<path d="M789 751 c-69 -22 -109 -72 -109 -133 0 -43 21 -72 75 -104 25 -14
45 -30 45 -36 0 -5 -12 -1 -27 10 -16 11 -38 22 -50 26 -54 17 -121 -62 -109
-128 12 -66 100 -116 200 -116 75 1 129 29 166 87 28 43 31 55 28 114 -2 50 2
72 16 93 38 58 15 130 -53 170 -36 20 -141 31 -182 17z m161 -55 c33 -15 55
-56 46 -89 -8 -32 -19 -34 -53 -7 -14 11 -37 20 -51 20 -24 0 -23 -2 20 -44
50 -48 71 -102 46 -120 -8 -6 -20 -26 -27 -44 -16 -38 -55 -72 -84 -72 -11 0
-28 -7 -38 -16 -14 -13 -24 -13 -57 -5 -60 17 -92 46 -92 86 0 35 21 65 46 65
8 0 32 -12 54 -26 35 -23 44 -25 65 -16 50 23 26 82 -50 126 -65 38 -70 81
-16 130 39 35 129 41 191 12z"/>
</g>
</svg>
